<svg t="1625800398152" class="icon" viewBox="0 0 1024 1024" version="1.1" xmlns="http://www.w3.org/2000/svg" p-id="6577" width="600" height="600"><path d="M461.781333 432.277333l24.106667 24.149334a21.333333 21.333333 0 0 1 0 30.165333l-59.626667 59.648-0.746666 0.64 66.432 66.453333 0.682666-0.704 59.648-59.669333a21.333333 21.333333 0 0 1 30.165334 0l24.149333 24.149333a21.333333 21.333333 0 0 1 0 30.165334l-59.669333 59.648-0.725334 0.64 36.266667 36.266666a42.666667 42.666667 0 0 1 0 60.330667l-90.517333 90.496c-75.136 75.157333-192.384 82.517333-275.797334 22.122667a20.949333 20.949333 0 0 1-1.770666 2.026666L154.730667 938.453333a21.333333 21.333333 0 0 1-30.186667 0l-24.106667-24.128a21.333333 21.333333 0 0 1 0-30.165333l59.626667-59.669333c1.024-1.002667 2.133333-1.92 3.264-2.666667-55.146667-82.858667-46.165333-195.776 26.922667-268.864l90.496-90.496a42.666667 42.666667 0 0 1 60.352 0l30.165333 30.186667 0.682667-0.704 59.648-59.669334a21.333333 21.333333 0 0 1 30.186666 0z m-150.869333 90.517334l-75.413333 75.434666a149.333333 149.333333 0 0 0-3.562667 207.488l3.562667 3.690667a149.333333 149.333333 0 0 0 207.488 3.562667l3.690666-3.562667 75.434667-75.413333-211.2-211.2z m573.226667-422.378667a21.333333 21.333333 0 0 1 30.186666 0l24.128 24.128a21.333333 21.333333 0 0 1 0 30.186667l-59.648 59.648a20.949333 20.949333 0 0 1-2.026666 1.770666c60.394667 83.413333 53.034667 200.661333-22.122667 275.797334l-90.496 90.496a42.666667 42.666667 0 0 1-60.352 0L462.464 341.12a42.666667 42.666667 0 0 1 0-60.352l90.496-90.496c73.088-73.088 186.026667-82.069333 268.864-26.922667 0.768-1.152 1.664-2.24 2.666667-3.264z m-78.421334 131.52a149.333333 149.333333 0 0 0-207.488 3.562667l-75.434666 75.413333 211.2 211.2 75.413333-75.434667 3.562667-3.690666a149.333333 149.333333 0 0 0-3.562667-207.488z" fill="#dbdbdb" p-id="6578"></path></svg>